<?xml version="1.0" encoding="utf-8"?>
<!-- Svg Vector Icons : http://www.onlinewebfonts.com/icon -->
<!DOCTYPE svg PUBLIC "-//W3C//DTD SVG 1.1//EN" "http://www.w3.org/Graphics/SVG/1.1/DTD/svg11.dtd">
<svg  fill="#FFF" version="1.1" xmlns="http://www.w3.org/2000/svg" xmlns:xlink="http://www.w3.org/1999/xlink" x="0px" y="0px" viewBox="0 0 1000 1000" enable-background="new 0 0 1000 1000" xml:space="preserve">
<metadata> Svg Vector Icons : http://www.onlinewebfonts.com/icon </metadata>
<g><g><g><path d="M706,10H294c-36.7,0-66.5,29.8-66.5,66.5v847c0,36.7,29.8,66.5,66.5,66.5H706c36.7,0,66.5-29.9,66.5-66.5v-847C772.5,39.8,742.6,10,706,10z M746.5,923.5c0,22.3-18.2,40.5-40.5,40.5H294c-22.3,0-40.5-18.2-40.5-40.5v-847c0-22.3,18.2-40.5,40.5-40.5H706c22.4,0,40.5,18.2,40.5,40.5V923.5L746.5,923.5z"/><path d="M714.2,118.2H285.8c-3.6,0-6.5,2.9-6.5,6.5v743.6c0,3.6,2.9,6.5,6.5,6.5h428.4c3.6,0,6.5-2.9,6.5-6.5V124.7C720.7,121.1,717.8,118.2,714.2,118.2z M690.4,861.7H309.6c-9.6,0-17.3-7.8-17.3-17.3V148.5c0-9.6,7.8-17.3,17.3-17.3h380.8c9.6,0,17.3,7.8,17.3,17.3v695.9C707.7,854,700,861.7,690.4,861.7z"/><path d="M463.4,78.5h73.1c3.6,0,6.5-2.9,6.5-6.5c0-3.6-2.9-6.5-6.5-6.5h-73.1c-3.6,0-6.5,2.9-6.5,6.5C456.9,75.6,459.9,78.5,463.4,78.5z"/><path d="M537.4,889.6h-74.9c-15.4,0-27.9,12.5-27.9,27.9v4.5c0,15.4,12.5,27.9,27.9,27.9h74.9c15.4,0,27.9-12.5,27.9-27.9v-4.5C565.4,902.1,552.8,889.6,537.4,889.6z M552.4,921.9c0,8.2-6.7,14.9-14.9,14.9h-74.9c-8.2,0-14.9-6.7-14.9-14.9v-4.5c0-8.2,6.7-14.9,14.9-14.9h74.9c8.2,0,14.9,6.7,14.9,14.9V921.9z"/><path d="M452,540.4c2.5,0,5.1-1.1,6.8-3.3c2.9-3.8,2.3-9.2-1.5-12.2l-64.5-50.6c-7.5-5.9-6.9-14.5,1.5-19.2l62-35c4.2-2.4,5.7-7.6,3.3-11.8c-2.4-4.2-7.7-5.6-11.8-3.3l-88.4,49.8c-2.5,1.4-4.2,4-4.4,6.9c-0.2,2.9,1,5.7,3.3,7.5l88.4,69.3C448.3,539.8,450.1,540.4,452,540.4z"/><path d="M612,455c8.3,4.7,9,13.3,1.4,19.2l-64.5,50.6c-3.8,2.9-4.4,8.4-1.5,12.2c1.7,2.2,4.3,3.3,6.8,3.3c1.9,0,3.8-0.6,5.4-1.8l88.4-69.3c2.3-1.8,3.5-4.6,3.3-7.5c-0.2-2.9-1.9-5.5-4.4-6.9L558.5,405c-4.1-2.4-9.4-0.9-11.8,3.3c-2.4,4.2-0.9,9.5,3.3,11.8L612,455z"/><path d="M481.2,594.4c0.6,0.1,1.1,0.2,1.7,0.2c4.1,0,7.7-2.9,8.5-7L532.5,373c0.9-4.7-2.2-9.2-6.9-10.2c-4.8-0.9-9.3,2.2-10.2,6.9l-41.2,214.5C473.4,588.9,476.5,593.5,481.2,594.4z"/></g></g><g></g><g></g><g></g><g></g><g></g><g></g><g></g><g></g><g></g><g></g><g></g><g></g><g></g><g></g><g></g></g>
</svg>