<svg xmlns="http://www.w3.org/2000/svg" width="126.391" height="110.605" viewBox="0 0 126.391 110.605">
  <g id="cubes" transform="translate(0 -31.975)" fill="none" stroke-linecap="round">
    <path d="M120.615,85.846,96.768,76.909V50.125a8.885,8.885,0,0,0-5.776-8.319L66.306,32.549a8.782,8.782,0,0,0-6.246,0L35.375,41.806A8.885,8.885,0,0,0,29.6,50.125V76.909L5.752,85.846A8.9,8.9,0,0,0,0,94.165v27.179a8.9,8.9,0,0,0,4.912,7.949L29.6,141.636a8.837,8.837,0,0,0,7.949,0L63.2,128.8l25.649,12.837a8.837,8.837,0,0,0,7.949,0l24.686-12.343a8.9,8.9,0,0,0,4.912-7.949V94.165A8.885,8.885,0,0,0,120.615,85.846Zm-32.24-8.739L67.392,84.982V68.146l20.983-9.134ZM38.016,49.78,63.2,40.35l25.18,9.43v.148L63.2,60.148l-25.18-10.22Zm20.736,71.86L37.769,132.132V112.605l20.983-9.578Zm0-27.648-25.18,10.22L8.393,93.992v-.148l25.18-9.43,25.18,9.43ZM118,121.64,97.015,132.132V112.605L118,103.027Zm0-27.648-25.18,10.22-25.18-10.22v-.148l25.18-9.43L118,93.844Z" stroke="none"/>
    <path d="M 63.19266128540039 32.97499084472656 C 62.24302673339844 32.97499084472656 61.30824279785156 33.1463623046875 60.41175842285156 33.48527526855469 L 35.72666168212891 42.7421875 C 34.20990753173828 43.31231689453125 32.92221069335938 44.31367492675781 32.00274658203125 45.63804626464844 C 31.08396148681641 46.96143341064453 30.59832763671875 48.51308441162109 30.59832763671875 50.12526702880859 L 30.59832763671875 76.90940093994141 L 30.59832763671875 77.60256195068359 L 29.94924163818359 77.84581756591797 L 6.105842590332031 86.78089904785156 C 4.599174499511719 87.35128021240234 3.318458557128906 88.35253143310547 2.402145385742188 89.67639923095703 C 1.484840393066406 91.00167846679688 0.9999923706054688 92.55374908447266 0.9999923706054688 94.16477966308594 L 0.9999923706054688 121.3439025878906 C 0.9999923706054688 122.8066482543945 1.407241821289062 124.2393798828125 2.177726745605469 125.4872283935547 C 2.949111938476562 126.7365493774414 4.049423217773438 127.7431793212891 5.359695434570312 128.3983154296875 L 30.04907989501953 140.7429962158203 C 31.13334655761719 141.2904968261719 32.351806640625 141.5798797607422 33.57274627685547 141.5798797607422 C 34.79367828369141 141.5798797607422 36.01214599609375 141.2904968261719 37.099609375 140.7413940429688 L 62.74819183349609 127.90478515625 L 63.19574356079102 127.6807861328125 L 63.64329528808594 127.90478515625 L 89.29507446289062 140.7429962158203 C 90.37934875488281 141.2904968261719 91.59780883789062 141.5798797607422 92.81874084472656 141.5798797607422 C 94.0396728515625 141.5798797607422 95.25816345214844 141.2904815673828 96.34596252441406 140.7412109375 L 121.0317916870117 128.3983154296875 C 122.3420562744141 127.7431793212891 123.4423751831055 126.7365493774414 124.2137451171875 125.4872283935547 C 124.9842300415039 124.2393951416016 125.3914794921875 122.8066482543945 125.3914794921875 121.3439025878906 L 125.3914794921875 94.16477966308594 C 125.3914794921875 92.55259704589844 124.9058456420898 91.00094604492188 123.9870758056641 89.67758178710938 C 123.0676116943359 88.35321807861328 121.7799072265625 87.35184478759766 120.2641067504883 86.78208160400391 L 96.41755676269531 77.84581756591797 L 95.76847839355469 77.60256195068359 L 95.76847839355469 76.90940093994141 L 95.76847839355469 50.12526702880859 C 95.76847839355469 48.51308441162109 95.28284454345703 46.96143341064453 94.36405944824219 45.63804626464844 C 93.44461059570312 44.31367492675781 92.15689086914062 43.31231689453125 90.64089202880859 42.74246215820312 L 65.95504760742188 33.48527526855469 L 65.95187377929688 33.48410034179688 L 65.94873046875 33.48287963867188 C 65.06816101074219 33.1458740234375 64.14087677001953 32.97499084472656 63.19266128540039 32.97499084472656 M 63.19574356079102 61.22695159912109 L 62.81966018676758 61.07429504394531 L 37.64011383056641 50.85434722900391 L 37.01619720458984 50.60111236572266 L 37.01619720458984 49.92776489257812 L 37.01619720458984 49.7796630859375 L 37.01619720458984 49.08634948730469 L 37.66547393798828 48.84317779541016 L 62.84502792358398 39.41317749023438 L 63.19574356079102 39.28182983398438 L 63.54645919799805 39.41317749023438 L 88.72602844238281 48.84317779541016 L 89.37530517578125 49.08634948730469 L 89.37530517578125 49.7796630859375 L 89.37530517578125 49.92776489257812 L 89.37530517578125 50.60111236572266 L 88.75138854980469 50.85434722900391 L 63.57182693481445 61.07429504394531 L 63.19574356079102 61.22695159912109 M 66.39232635498047 86.42506408691406 L 66.39232635498047 84.98166656494141 L 66.39232635498047 68.14593505859375 L 66.39232635498047 67.4906005859375 L 66.99320983886719 67.22903442382812 L 87.9761962890625 58.09526824951172 L 89.37530517578125 57.48622894287109 L 89.37530517578125 59.01216125488281 L 89.37530517578125 77.10688018798828 L 89.37530517578125 77.79969787597656 L 88.72667694091797 78.04311370849609 L 67.74369812011719 85.91790008544922 L 66.39232635498047 86.42506408691406 M 33.57274627685547 105.2911682128906 L 33.19666290283203 105.1385116577148 L 8.01708984375 94.9185791015625 L 7.393173217773438 94.66535186767578 L 7.393173217773438 93.99199676513672 L 7.393173217773438 93.84386444091797 L 7.393173217773438 93.15055084228516 L 8.042457580566406 92.90737915039062 L 33.22203063964844 83.4774169921875 L 33.57274627685547 83.34606170654297 L 33.9234619140625 83.4774169921875 L 59.10301208496094 92.90737915039062 L 59.75229644775391 93.15055084228516 L 59.75229644775391 93.84386444091797 L 59.75229644775391 93.99199676513672 L 59.75229644775391 94.66535186767578 L 59.12837982177734 94.9185791015625 L 33.94882965087891 105.1385116577148 L 33.57274627685547 105.2911682128906 M 92.81874084472656 105.2911682128906 L 92.44265747070312 105.1385116577148 L 67.26310729980469 94.9185791015625 L 66.63919067382812 94.66535186767578 L 66.63919067382812 93.99199676513672 L 66.63919067382812 93.84386444091797 L 66.63919067382812 93.15055084228516 L 67.28847503662109 92.90737915039062 L 92.46802520751953 83.4774169921875 L 92.81874084472656 83.34606170654297 L 93.16946411132812 83.4774169921875 L 118.3490142822266 92.90737915039062 L 118.998291015625 93.15055084228516 L 118.998291015625 93.84386444091797 L 118.998291015625 93.99199676513672 L 118.998291015625 94.66535186767578 L 118.3743743896484 94.9185791015625 L 93.19482421875 105.1385116577148 L 92.81874084472656 105.2911682128906 M 36.76934051513672 133.7496490478516 L 36.76934051513672 132.1316223144531 L 36.76934051513672 112.6051177978516 L 36.76934051513672 111.9623260498047 L 37.35409545898438 111.6954193115234 L 58.33704376220703 102.1172943115234 L 59.75229644775391 101.4712677001953 L 59.75229644775391 103.0270004272461 L 59.75229644775391 121.64013671875 L 59.75229644775391 122.2581634521484 L 59.19950866699219 122.5345611572266 L 38.21656036376953 133.0260467529297 L 36.76934051513672 133.7496490478516 M 96.01535797119141 133.7496490478516 L 96.01535797119141 132.1316223144531 L 96.01535797119141 112.6051177978516 L 96.01535797119141 111.9623260498047 L 96.60011291503906 111.6954193115234 L 117.5830459594727 102.1172943115234 L 118.998291015625 101.4712677001953 L 118.998291015625 103.0270004272461 L 118.998291015625 121.64013671875 L 118.998291015625 122.2581634521484 L 118.4455108642578 122.5345611572266 L 97.46257781982422 133.0260467529297 L 96.01535797119141 133.7496490478516 M 63.19265747070312 31.97499084472656 C 64.25106811523438 31.97499084472656 65.30638122558594 32.16632080078125 66.30615997314453 32.5489501953125 L 90.99201202392578 41.80613708496094 C 94.47269439697266 43.11448669433594 96.76847839355469 46.42237854003906 96.76847839355469 50.12526702880859 L 96.76847839355469 76.90940093994141 L 120.6150283813477 85.84566497802734 C 124.0957107543945 87.15401458740234 126.3914794921875 90.4619140625 126.3914794921875 94.16477966308594 L 126.3914794921875 121.3439025878906 C 126.3914794921875 124.7011642456055 124.4906921386719 127.7868957519531 121.4790115356445 129.2927551269531 L 96.79317474365234 141.6356506347656 C 95.54653930664062 142.26513671875 94.18264007568359 142.5798950195312 92.81874084472656 142.5798950195312 C 91.45484924316406 142.5798950195312 90.09095764160156 142.26513671875 88.84432983398438 141.6356506347656 L 63.19574356079102 128.7990264892578 L 37.54715728759766 141.6356506347656 C 36.30052947998047 142.26513671875 34.93663787841797 142.5798950195312 33.57274627685547 142.5798950195312 C 32.20885467529297 142.5798950195312 30.84496307373047 142.26513671875 29.59832763671875 141.6356506347656 L 4.9124755859375 129.2927551269531 C 1.900810241699219 127.7868957519531 -7.62939453125e-06 124.7011642456055 -7.62939453125e-06 121.3439025878906 L -7.62939453125e-06 94.16477966308594 C -7.62939453125e-06 90.4619140625 2.2957763671875 87.15401458740234 5.751792907714844 85.84566497802734 L 29.59832763671875 76.90940093994141 L 29.59832763671875 50.12526702880859 C 29.59832763671875 46.42237854003906 31.89411163330078 43.11448669433594 35.37480926513672 41.80613708496094 L 60.06064605712891 32.5489501953125 C 61.07276153564453 32.16632080078125 62.13425445556641 31.97499084472656 63.19265747070312 31.97499084472656 Z M 63.19574356079102 60.14771270751953 L 88.37530517578125 49.92776489257812 L 88.37530517578125 49.7796630859375 L 63.19574356079102 40.34967041015625 L 38.01619720458984 49.7796630859375 L 38.01619720458984 49.92776489257812 L 63.19574356079102 60.14771270751953 Z M 67.39232635498047 84.98166656494141 L 88.37530517578125 77.10688018798828 L 88.37530517578125 59.01216125488281 L 67.39232635498047 68.14593505859375 L 67.39232635498047 84.98166656494141 Z M 33.57274627685547 104.2119293212891 L 58.75229644775391 93.99199676513672 L 58.75229644775391 93.84386444091797 L 33.57274627685547 84.41389465332031 L 8.393173217773438 93.84386444091797 L 8.393173217773438 93.99199676513672 L 33.57274627685547 104.2119293212891 Z M 92.81874084472656 104.2119293212891 L 117.998291015625 93.99199676513672 L 117.998291015625 93.84386444091797 L 92.81874084472656 84.41389465332031 L 67.63919067382812 93.84386444091797 L 67.63919067382812 93.99199676513672 L 92.81874084472656 104.2119293212891 Z M 37.76934051513672 132.1316223144531 L 58.75229644775391 121.64013671875 L 58.75229644775391 103.0270004272461 L 37.76934051513672 112.6051177978516 L 37.76934051513672 132.1316223144531 Z M 97.01535797119141 132.1316223144531 L 117.998291015625 121.64013671875 L 117.998291015625 103.0270004272461 L 97.01535797119141 112.6051177978516 L 97.01535797119141 132.1316223144531 Z" stroke="none" fill="#f2f5ed"/>
  </g>
</svg>
