<svg xmlns="http://www.w3.org/2000/svg" width="126.129" height="126.15" viewBox="0 0 126.129 126.15">
  <g id="search" fill="none" stroke-linecap="round">
    <path d="M124.414,109.065,99.851,84.5a5.908,5.908,0,0,0-4.188-1.725H91.647a51.22,51.22,0,1,0-8.869,8.869v4.016A5.908,5.908,0,0,0,84.5,99.851l24.562,24.562a5.888,5.888,0,0,0,8.352,0l6.972-6.972A5.94,5.94,0,0,0,124.414,109.065ZM51.244,82.778A31.535,31.535,0,1,1,82.778,51.244,31.516,31.516,0,0,1,51.244,82.778Z" stroke="none"/>
    <path d="M 113.2501983642578 123.1504287719727 C 114.0215606689453 123.1504287719727 114.7439117431641 122.8496780395508 115.2841796875 122.3036117553711 L 115.2898178100586 122.2979202270508 L 115.2954940795898 122.2922286987305 L 122.267578125 115.3201370239258 C 123.4061737060547 114.1815643310547 123.4138870239258 112.3261260986328 122.2862548828125 111.1804656982422 L 97.72978210449219 86.62399291992188 C 97.184326171875 86.07851409912109 96.45029449462891 85.77811431884766 95.66292572021484 85.77811431884766 L 91.647216796875 85.77811431884766 L 85.77812957763672 85.77811431884766 L 85.77812957763672 91.64720916748047 L 85.77812957763672 95.66293334960938 C 85.77812957763672 96.45030212402344 86.07852935791016 97.18431854248047 86.62400054931641 97.72977447509766 L 111.1864395141602 122.2922286987305 C 111.7398376464844 122.8456420898438 112.4727630615234 123.1504287719727 113.2501983642578 123.1504287719727 M 51.24359893798828 99.48720550537109 C 56.72832870483398 99.48720550537109 62.10354614257812 98.57831573486328 67.21994781494141 96.78580474853516 C 72.16786956787109 95.05231475830078 76.78069305419922 92.52828216552734 80.93029022216797 89.28384399414062 L 85.61842346191406 85.61833190917969 L 89.28385162353516 80.93028259277344 C 92.52828979492188 76.78067779541016 95.05230712890625 72.16786193847656 96.78579711914062 67.21995544433594 C 98.57830810546875 62.10355377197266 99.48719787597656 56.72833633422852 99.48719787597656 51.24361038208008 C 99.48719787597656 44.72775268554688 98.21232604980469 38.40909957885742 95.69795989990234 32.463134765625 C 93.26874542236328 26.71848106384277 89.79030609130859 21.55899047851562 85.35927581787109 17.1279354095459 C 80.92821502685547 12.6968994140625 75.76873016357422 9.218462944030762 70.02407073974609 6.789244651794434 C 64.07810974121094 4.274881362915039 57.75945281982422 3.000008583068848 51.24359893798828 3.000008583068848 C 44.72774505615234 3.000008583068848 38.40909194946289 4.274881362915039 32.46312713623047 6.789244651794434 C 26.71847343444824 9.218462944030762 21.55898094177246 12.6968994140625 17.12792778015137 17.1279354095459 C 12.69689083099365 21.55899047851562 9.218454360961914 26.71848106384277 6.789236545562744 32.463134765625 C 4.274872779846191 38.40909957885742 3 44.72775268554688 3 51.24361038208008 C 3 57.75946426391602 4.274872779846191 64.07811737060547 6.789236545562744 70.02406311035156 C 9.218454360961914 75.76871490478516 12.69689083099365 80.92823028564453 17.12792778015137 85.35926055908203 C 21.55898094177246 89.79032135009766 26.71847343444824 93.26875305175781 32.46312713623047 95.69797515869141 C 38.40909194946289 98.21233367919922 44.72774505615234 99.48720550537109 51.24359893798828 99.48720550537109 M 51.24359893798828 16.70908164978027 C 55.90514373779297 16.70908164978027 60.42796325683594 17.62113571166992 64.68637847900391 19.41991806030273 C 68.80005645751953 21.15757179260254 72.49323272705078 23.64511680603027 75.663330078125 26.81349945068359 C 78.83443450927734 29.9828987121582 81.32420349121094 33.67577362060547 83.06343841552734 37.78951644897461 C 84.86478424072266 42.05015563964844 85.77812957763672 46.57675552368164 85.77812957763672 51.24361038208008 C 85.77812957763672 55.90515518188477 84.86607360839844 60.42797088623047 83.06727600097656 64.68639373779297 C 81.32963562011719 68.80006408691406 78.84209442138672 72.49322509765625 75.6737060546875 75.66331481933594 C 72.50428771972656 78.83444213867188 68.81143951416016 81.32418823242188 64.69766998291016 83.06342315673828 C 60.43705368041992 84.86476898193359 55.91045379638672 85.77811431884766 51.24359893798828 85.77811431884766 C 46.58205413818359 85.77811431884766 42.05923461914062 84.86606597900391 37.80081939697266 83.06728363037109 C 33.6871452331543 81.32964324951172 29.99396324157715 78.84207916259766 26.82387351989746 75.67369842529297 C 23.65276336669922 72.50430297851562 21.16300010681152 68.81142425537109 19.42376327514648 64.69767761230469 C 17.62241744995117 60.43706130981445 16.70907211303711 55.91046142578125 16.70907211303711 51.24361038208008 C 16.70907211303711 46.58204650878906 17.62112808227539 42.05924606323242 19.4199275970459 37.80080795288086 C 21.15756416320801 33.68713760375977 23.64510917663574 29.99397277832031 26.81348991394043 26.82388114929199 C 29.98290824890137 23.65277290344238 33.67576217651367 21.16300773620605 37.78952789306641 19.42377281188965 C 42.05014419555664 17.62242698669434 46.57674407958984 16.70908164978027 51.24359893798828 16.70908164978027 M 113.2502059936523 126.1504211425781 C 111.738151550293 126.1504211425781 110.223014831543 125.5714645385742 109.0651092529297 124.4135513305664 L 84.50267028808594 99.85109710693359 C 83.39403533935547 98.74246215820312 82.77812957763672 97.23966217041016 82.77812957763672 95.66293334960938 L 82.77812957763672 91.64720916748047 C 74.08148956298828 98.44684600830078 63.1429443359375 102.4872055053711 51.24359893798828 102.4872055053711 C 22.93643569946289 102.4872055053711 -4.993785296392161e-08 79.55075073242188 -4.993785296392161e-08 51.24361038208008 C -4.993785296392161e-08 22.93644523620605 22.93643569946289 8.516623893228825e-06 51.24359893798828 8.516623893228825e-06 C 79.55076599121094 8.516623893228825e-06 102.4871978759766 22.93644523620605 102.4871978759766 51.24361038208008 C 102.4871978759766 63.1429557800293 98.44683837890625 74.08148193359375 91.647216796875 82.77811431884766 L 95.66292572021484 82.77811431884766 C 97.23965454101562 82.77811431884766 98.74246978759766 83.39402770996094 99.85111236572266 84.50266265869141 L 124.4135437011719 109.0651016235352 C 126.7047271728516 111.3809356689453 126.7047271728516 115.1256484985352 124.3889083862305 117.4414596557617 L 117.4168167114258 124.4135513305664 C 116.2712249755859 125.5714645385742 114.7622528076172 126.1504211425781 113.2502059936523 126.1504211425781 Z M 51.24359893798828 19.70908164978027 C 33.80107116699219 19.70908164978027 19.70907211303711 33.82569885253906 19.70907211303711 51.24361038208008 C 19.70907211303711 68.68613433837891 33.82571029663086 82.77811431884766 51.24359893798828 82.77811431884766 C 68.68612670898438 82.77811431884766 82.77812957763672 68.6614990234375 82.77812957763672 51.24361038208008 C 82.77812957763672 33.80106353759766 68.66149139404297 19.70908164978027 51.24359893798828 19.70908164978027 Z" stroke="none" fill="#f4f5f0"/>
  </g>
</svg>
