<svg xmlns="http://www.w3.org/2000/svg" width="125.768" height="100.599" viewBox="0 0 125.768 100.599">
  <g id="code" transform="translate(0.025 -0.037)" fill="none" stroke-linecap="round">
    <path d="M54.783,100.538,42.8,97.06a2.361,2.361,0,0,1-1.611-2.928L68.007,1.739A2.361,2.361,0,0,1,70.935.128L82.921,3.606a2.361,2.361,0,0,1,1.611,2.928L57.711,98.927A2.355,2.355,0,0,1,54.783,100.538Zm-22.4-22.047,8.548-9.117a2.358,2.358,0,0,0-.157-3.38L22.97,50.333l17.8-15.661a2.341,2.341,0,0,0,.157-3.38l-8.548-9.117a2.36,2.36,0,0,0-3.34-.1L.727,48.6a2.342,2.342,0,0,0,0,3.439L29.042,78.589a2.343,2.343,0,0,0,3.34-.1Zm64.294.118,28.315-26.547a2.342,2.342,0,0,0,0-3.439L96.676,22.057a2.379,2.379,0,0,0-3.34.1l-8.548,9.117a2.358,2.358,0,0,0,.157,3.38l17.8,15.68-17.8,15.661a2.341,2.341,0,0,0-.157,3.38l8.548,9.117a2.361,2.361,0,0,0,3.34.118Z" stroke="none"/>
    <path d="M 55.00697708129883 97.47919464111328 L 81.47361755371094 6.309826374053955 L 70.71072387695312 3.186829805374146 L 44.24406814575195 94.35618591308594 L 55.00697708129883 97.47919464111328 M 95.09366607666016 75.98004913330078 L 122.4389266967773 50.3426628112793 L 95.08370208740234 24.67696762084961 L 87.42866516113281 32.84233856201172 L 104.7305526733398 48.08176040649414 L 107.2880783081055 50.33443450927734 L 104.7291488647461 52.58550643920898 L 87.42894744873047 67.80434417724609 L 95.09366607666016 75.98004913330078 M 30.63384437561035 75.96958923339844 L 38.28874969482422 67.80434417724609 L 20.9885311126709 52.58550643920898 L 18.42798614501953 50.33301544189453 L 20.9885311126709 48.08052444458008 L 38.28875350952148 32.86169052124023 L 30.63368225097656 24.6962890625 L 3.279146432876587 50.32337951660156 L 30.63384437561035 75.96958923339844 M 55.45206069946289 100.6358947753906 C 55.2313232421875 100.6358947753906 55.00650787353516 100.6043090820312 54.78284072875977 100.5379104614258 L 42.79653167724609 97.05990600585938 C 41.53896713256836 96.70621490478516 40.83156967163086 95.38968658447266 41.18526077270508 94.13211059570312 L 68.00705718994141 1.739398121833801 C 68.29920196533203 0.7006496787071228 69.24845886230469 0.03717609122395515 70.27860260009766 0.03717609122395515 C 70.49562072753906 0.03717609122395515 70.71602630615234 0.0665760263800621 70.93486022949219 0.1281253844499588 L 82.92115020751953 3.606107234954834 C 84.17873382568359 3.959798097610474 84.88611602783203 5.276325225830078 84.53242492675781 6.533907413482666 L 57.71063995361328 98.9266357421875 C 57.40368270874023 99.96054840087891 56.47241592407227 100.6358947753906 55.45206069946289 100.6358947753906 Z M 95.05339813232422 79.24385070800781 C 94.42289733886719 79.24382019042969 93.79637908935547 78.99286651611328 93.33547973632812 78.49099731445312 L 84.78787994384766 69.37354278564453 C 83.86433410644531 68.41070556640625 83.94293212890625 66.87803649902344 84.94507598876953 65.99379730224609 L 102.7476577758789 50.33301544189453 L 84.94507598876953 34.65258026123047 C 83.94294738769531 33.76834487915039 83.88398742675781 32.23567199707031 84.78787994384766 31.27283477783203 L 93.33547973632812 22.15539741516113 C 93.80445861816406 21.66601943969727 94.43199157714844 21.42001914978027 95.05918884277344 21.42001914978027 C 95.64079284667969 21.42001914978027 96.22212982177734 21.6317024230957 96.67593383789062 22.05714416503906 L 124.991096496582 48.62348937988281 C 125.9932250976562 49.54701614379883 125.9932250976562 51.13865280151367 124.991096496582 52.06217956542969 L 96.67593383789062 78.60888671875 C 96.2149658203125 79.0322265625 95.63251495361328 79.24388122558594 95.05339813232422 79.24385070800781 Z M 30.6746768951416 79.2410888671875 C 30.09221267700195 79.24107360839844 29.50543785095215 79.02452087402344 29.04176902770996 78.5892333984375 L 0.7266045808792114 52.04254531860352 C -0.2755226790904999 51.11899948120117 -0.2755226790904999 49.52737808227539 0.7266045808792114 48.60385131835938 L 29.04176902770996 22.07679748535156 C 29.50273513793945 21.64405059814453 30.08524703979492 21.4320125579834 30.66436195373535 21.4320125579834 C 31.29486083984375 21.4320125579834 31.92132377624512 21.68341827392578 32.38222122192383 22.17505264282227 L 40.9298210144043 31.29248809814453 C 41.85336685180664 32.25532531738281 41.77474975585938 33.78797912597656 40.77262115478516 34.67223358154297 L 22.97002220153809 50.33301544189453 L 40.77262115478516 65.99379730224609 C 41.77474975585938 66.87803649902344 41.83371353149414 68.41070556640625 40.9298210144043 69.37354278564453 L 32.38222122192383 78.49099731445312 C 31.92380523681641 78.99016571044922 31.30173301696777 79.24110412597656 30.6746768951416 79.2410888671875 Z" stroke="none" fill="#fefffd"/>
  </g>
</svg>
